<?xml version="1.0" standalone="no"?>
<!DOCTYPE svg PUBLIC "-//W3C//DTD SVG 20010904//EN"
 "http://www.w3.org/TR/2001/REC-SVG-20010904/DTD/svg10.dtd">
<svg version="1.0" xmlns="http://www.w3.org/2000/svg"
 width="1408.000000pt" height="1408.000000pt" viewBox="0 0 1408.000000 1408.000000"
 preserveAspectRatio="xMidYMid meet">
<metadata>
Created by potrace 1.14, written by Peter Selinger 2001-2017
</metadata>
<g transform="translate(0.000000,1408.000000) scale(0.100000,-0.100000)"
fill="#000000" stroke="none">
<path d="M11408 10105 c-1 -2 -43 -6 -93 -10 -106 -7 -139 -11 -255 -31 -28
-5 -177 -40 -250 -58 -102 -26 -341 -122 -460 -184 -84 -44 -165 -93 -168
-103 -2 -5 -8 -9 -14 -9 -6 0 -49 -30 -96 -67 -132 -103 -262 -240 -349 -366
-23 -34 -46 -66 -51 -72 -4 -5 -26 -46 -47 -90 -22 -44 -44 -83 -50 -87 -5 -4
-7 -8 -4 -8 4 0 -7 -35 -23 -77 -16 -42 -32 -84 -34 -92 -65 -257 -78 -351
-77 -591 1 -238 12 -325 64 -495 102 -333 357 -609 724 -785 103 -49 194 -90
200 -90 3 0 24 -8 48 -19 23 -10 69 -29 102 -41 33 -12 71 -26 85 -32 27 -11
315 -107 340 -113 8 -2 49 -13 90 -25 41 -12 100 -28 130 -36 30 -8 60 -16 65
-18 6 -2 12 -4 15 -4 3 -1 31 -10 63 -21 31 -11 57 -18 57 -15 0 3 9 0 21 -6
11 -6 28 -13 37 -15 9 -2 53 -15 97 -29 44 -14 85 -26 93 -26 7 0 20 -4 30 -9
17 -10 49 -22 67 -26 19 -5 250 -83 275 -93 32 -13 64 -25 70 -26 18 -4 193
-93 228 -117 24 -16 46 -29 50 -29 19 0 162 -138 162 -157 0 -7 3 -13 8 -13 8
0 38 -65 54 -115 30 -98 28 -289 -4 -348 -6 -12 -11 -24 -10 -27 3 -20 -64
-125 -108 -170 -57 -56 -209 -148 -275 -164 -16 -4 -37 -10 -45 -12 -71 -20
-212 -45 -290 -50 -153 -12 -393 -7 -510 10 -14 2 -47 7 -75 11 -27 3 -57 8
-65 10 -8 2 -31 7 -50 10 -19 3 -53 11 -75 17 -22 5 -49 12 -60 13 -26 4 -221
60 -310 89 -217 72 -418 160 -645 284 -87 48 -194 115 -198 124 -2 4 -10 8
-17 8 -8 0 -18 6 -22 13 -4 6 -26 24 -48 39 -22 15 -55 41 -74 57 l-33 29 -73
-142 c-40 -77 -134 -262 -210 -411 -76 -148 -157 -307 -181 -352 -46 -87 -46
-88 6 -118 10 -5 42 -26 71 -46 123 -83 458 -269 484 -269 6 0 15 -4 21 -9 5
-4 47 -24 94 -44 121 -51 143 -60 161 -63 8 -2 29 -10 45 -19 16 -8 35 -15 42
-15 7 0 20 -4 30 -9 14 -7 126 -44 142 -47 3 0 12 -3 20 -7 36 -14 242 -69
300 -81 14 -2 54 -11 90 -20 36 -8 83 -18 105 -21 22 -4 48 -8 57 -11 21 -6
40 -9 138 -23 162 -23 191 -26 322 -35 37 -2 70 -6 75 -8 25 -12 515 1 653 18
19 2 58 6 85 9 42 5 160 25 240 41 11 3 36 7 55 10 19 3 38 8 42 11 5 2 18 6
30 8 30 6 178 54 203 66 12 6 27 11 35 13 22 5 83 32 200 90 278 139 485 319
638 556 39 59 122 222 127 249 2 9 12 39 23 66 16 41 38 130 32 130 -1 0 4 13
10 29 12 32 17 62 37 211 9 66 9 439 0 490 -4 22 -9 54 -12 70 -10 64 -21 123
-25 128 -2 2 -5 16 -13 57 -16 79 -93 248 -156 340 -100 146 -180 234 -306
334 -33 26 -68 54 -77 62 -10 7 -18 11 -18 7 0 -3 -10 3 -22 14 -13 11 -45 33
-73 48 -53 31 -282 145 -290 145 -2 0 -28 11 -57 24 -29 13 -73 31 -98 41 -25
9 -56 22 -70 28 -14 6 -27 11 -30 11 -5 1 -144 50 -180 63 -8 4 -19 7 -25 8
-5 2 -57 17 -115 35 -58 17 -157 45 -220 62 -63 16 -146 38 -185 48 -38 10
-104 27 -145 39 -41 12 -86 23 -100 26 -14 3 -32 8 -40 11 -8 3 -53 17 -100
30 -47 14 -92 27 -100 31 -8 3 -21 7 -28 9 -26 5 -208 66 -237 79 -16 7 -50
21 -75 31 -91 36 -226 120 -286 178 -53 52 -103 134 -125 208 -26 84 -30 241
-10 328 13 53 49 150 60 160 4 3 12 16 19 30 15 30 97 117 138 146 110 79 293
144 447 160 29 2 67 7 86 10 47 6 275 6 336 0 67 -8 124 -15 155 -21 14 -2 36
-6 50 -9 24 -4 208 -52 295 -76 59 -17 187 -59 210 -70 11 -5 45 -19 75 -30
30 -12 69 -27 85 -35 80 -36 146 -64 148 -62 1 1 16 -8 34 -21 17 -12 34 -22
38 -22 11 0 224 -138 285 -185 57 -44 59 -45 66 -23 4 13 10 25 14 28 3 3 13
19 21 35 9 17 61 114 117 217 56 102 102 191 102 197 0 6 4 11 10 11 5 0 12
11 16 25 3 14 10 25 15 25 5 0 9 9 9 19 0 11 3 21 8 23 4 2 18 26 32 53 14 28
27 52 30 55 3 3 18 30 34 60 16 30 42 79 58 108 16 30 28 55 26 56 -78 54
-140 92 -209 130 -87 47 -94 51 -99 57 -6 7 -316 159 -324 159 -3 0 -29 11
-58 25 -28 14 -57 25 -63 25 -6 0 -29 8 -51 19 -34 15 -144 53 -314 106 -25 8
-83 24 -130 35 -113 28 -112 27 -155 34 -20 4 -40 8 -44 10 -4 3 -34 8 -66 11
-33 4 -69 9 -80 11 -11 3 -42 7 -70 10 -27 3 -66 7 -85 10 -40 6 -486 14 -492
9z"/>
<path d="M5 10062 c-2 -2 0 -12 5 -21 4 -9 20 -47 35 -86 31 -81 41 -106 55
-137 5 -13 23 -59 40 -103 17 -44 37 -94 45 -112 8 -17 15 -34 15 -38 0 -4 7
-23 16 -43 20 -45 24 -56 64 -157 17 -44 35 -89 40 -100 5 -11 48 -119 96
-240 47 -121 92 -233 99 -250 7 -16 21 -50 30 -75 9 -25 22 -56 28 -70 6 -14
11 -27 12 -30 2 -6 23 -58 32 -80 3 -8 7 -19 8 -25 2 -5 12 -30 23 -55 11 -25
30 -71 41 -102 11 -32 25 -66 31 -75 5 -10 17 -37 25 -60 8 -24 22 -62 30 -85
8 -24 20 -51 25 -61 6 -9 20 -43 31 -75 11 -31 28 -73 37 -92 9 -19 17 -37 17
-40 2 -7 13 -36 54 -135 20 -49 36 -92 37 -95 0 -3 8 -22 17 -44 9 -21 17 -40
17 -42 0 -1 5 -15 12 -31 6 -15 12 -30 13 -33 1 -3 7 -18 14 -34 6 -16 41
-104 77 -195 36 -91 72 -180 80 -198 8 -17 14 -33 14 -36 0 -2 8 -22 17 -43 9
-22 17 -41 18 -44 1 -3 5 -14 10 -25 4 -11 17 -42 27 -70 21 -56 26 -68 59
-144 13 -30 24 -57 24 -60 1 -10 57 -154 69 -176 5 -11 11 -22 11 -25 0 -3 15
-43 34 -90 28 -74 46 -117 92 -227 20 -48 28 -71 64 -163 20 -52 41 -104 46
-115 12 -27 31 -77 35 -90 3 -12 180 -456 200 -500 27 -63 194 -484 194 -490
0 -3 8 -25 18 -48 11 -23 31 -73 47 -112 15 -38 33 -83 40 -100 7 -16 37 -91
66 -165 57 -148 64 -161 88 -159 9 1 18 0 21 0 12 -5 218 -3 226 1 5 3 18 2
29 -2 11 -4 32 -4 48 1 15 4 27 5 27 1 0 -8 192 -7 212 0 7 3 22 2 33 -2 11
-4 29 -4 40 0 11 4 29 4 40 0 11 -4 29 -4 41 0 11 5 26 5 34 0 7 -4 24 -5 38
-1 14 4 45 4 69 1 24 -4 43 -3 43 1 0 4 14 4 30 -1 33 -10 30 -14 80 111 10
26 27 66 38 90 11 24 30 69 42 99 12 30 31 74 41 97 11 23 19 44 19 47 0 2 10
26 22 53 11 26 22 53 23 58 2 6 12 30 23 55 11 25 48 113 82 195 34 83 68 164
75 180 39 90 95 226 95 231 0 3 9 24 19 47 33 72 103 241 105 253 1 7 7 18 14
26 6 8 13 23 15 34 2 10 10 33 17 49 7 17 14 32 14 35 1 3 9 21 18 40 9 19 32
76 53 125 20 50 42 104 49 120 8 17 60 142 116 278 57 136 106 244 110 240 3
-4 17 -33 29 -63 13 -30 30 -69 37 -85 29 -69 37 -90 36 -97 -1 -5 3 -8 10 -8
6 0 9 -3 5 -6 -3 -4 5 -28 19 -55 13 -27 22 -49 19 -49 -4 0 2 -17 13 -37 25
-51 43 -91 86 -198 44 -108 48 -116 75 -177 12 -26 21 -50 21 -53 0 -2 13 -33
28 -67 16 -35 34 -79 42 -98 7 -19 17 -39 22 -44 4 -6 8 -17 8 -25 0 -9 7 -29
16 -46 9 -16 25 -52 36 -80 11 -27 25 -63 33 -80 27 -63 44 -103 80 -190 41
-100 42 -102 85 -200 17 -38 31 -72 32 -75 1 -3 8 -21 15 -40 25 -60 84 -203
98 -235 7 -16 36 -86 65 -155 29 -69 63 -149 76 -177 13 -29 26 -64 30 -78 10
-40 26 -46 129 -45 11 0 43 0 72 -1 29 0 57 2 63 6 5 3 10 3 10 -2 0 -4 35 -7
77 -5 43 2 84 3 91 3 6 0 23 -1 37 -1 14 0 32 0 40 0 8 0 26 0 40 0 14 0 33 0
43 0 9 0 28 0 42 1 29 1 36 1 116 -2 33 -1 65 0 70 3 5 3 18 2 29 -2 11 -4 32
-4 48 1 15 4 27 5 27 1 0 -4 17 -7 37 -6 36 1 38 3 65 70 16 38 32 78 37 89 5
11 66 164 136 340 69 176 130 329 135 340 13 28 141 348 144 360 1 6 10 28 20
50 10 22 24 56 31 75 8 19 22 58 33 85 20 50 281 703 297 740 4 11 9 25 11 30
4 15 93 236 110 272 8 17 14 33 14 36 0 2 8 22 17 43 9 22 18 44 19 49 3 13
252 633 264 660 14 29 461 1148 464 1160 1 6 10 28 20 50 9 22 28 69 42 105
14 36 32 80 40 98 8 19 35 86 60 150 25 65 52 131 59 147 7 17 88 219 180 450
91 231 170 429 175 440 5 11 14 32 19 46 l9 25 -624 0 c-343 0 -624 0 -624 -1
0 -2 -55 -153 -142 -390 -17 -44 -31 -84 -32 -90 -2 -5 -6 -17 -9 -25 -11 -26
-68 -184 -70 -195 -1 -5 -4 -12 -7 -15 -3 -3 -11 -21 -17 -40 -11 -36 -53
-152 -118 -325 -20 -55 -38 -104 -39 -110 -2 -5 -6 -17 -9 -25 -4 -8 -67 -184
-142 -390 -75 -206 -142 -391 -150 -410 -8 -19 -37 -100 -66 -180 -28 -80 -56
-156 -61 -170 -5 -14 -9 -26 -9 -28 1 -1 -6 -19 -15 -40 -9 -20 -26 -66 -39
-102 -53 -152 -106 -296 -115 -315 -5 -11 -20 -51 -33 -90 -36 -101 -106 -297
-114 -315 -3 -8 -7 -17 -8 -20 -1 -3 -4 -12 -8 -20 -3 -8 -13 -35 -21 -60 -18
-53 -24 -69 -111 -305 -37 -99 -71 -196 -77 -215 -6 -19 -14 -40 -19 -46 -5
-6 -10 -19 -12 -30 -2 -10 -7 -27 -10 -36 -4 -10 -10 -26 -14 -35 -3 -10 -7
-22 -9 -28 -1 -5 -10 -28 -19 -49 -9 -22 -18 -47 -20 -55 -2 -9 -13 -41 -25
-71 -12 -30 -26 -68 -32 -85 -5 -16 -14 -39 -18 -50 -5 -11 -24 -62 -42 -112
-32 -93 -44 -109 -54 -75 -3 9 -15 40 -25 67 -21 52 -24 59 -57 140 -11 28
-28 70 -37 95 -9 25 -23 59 -30 75 -7 17 -42 104 -78 195 -83 212 -356 899
-367 925 -5 11 -19 45 -31 75 -12 30 -27 69 -34 85 -7 17 -27 65 -43 107 l-31
77 24 68 c13 37 36 97 50 133 15 36 28 72 30 80 2 8 4 16 5 18 2 1 3 5 5 10 2
7 20 54 32 82 3 8 7 17 7 20 3 9 38 104 47 125 4 11 17 43 27 70 11 28 29 75
41 105 11 31 21 59 21 64 0 4 7 22 15 39 16 36 66 167 69 182 1 6 4 15 8 20 3
6 15 35 26 65 11 30 67 181 126 336 58 155 106 286 106 293 0 6 5 11 11 11 5
0 8 4 5 8 -2 4 1 21 9 37 7 17 18 44 23 60 6 17 38 102 72 190 34 88 73 192
86 230 14 39 29 79 34 90 16 36 130 340 130 348 0 4 -237 6 -527 5 l-526 -3
-18 -50 c-9 -27 -40 -115 -68 -195 -29 -80 -54 -152 -56 -160 -5 -16 -14 -43
-105 -300 -34 -96 -63 -182 -65 -190 -2 -8 -9 -28 -15 -45 -19 -48 -141 -396
-152 -435 -6 -19 -13 -39 -16 -45 -4 -5 -7 -14 -8 -20 -3 -15 -173 -498 -177
-501 -3 -3 -47 121 -53 146 0 3 -5 16 -11 30 -6 14 -23 63 -38 110 -15 47 -31
94 -36 105 -9 21 -77 220 -84 245 -2 8 -23 67 -45 130 -23 63 -43 120 -44 125
-2 6 -6 17 -9 25 -9 22 -98 283 -101 295 -2 6 -6 17 -9 25 -33 88 -65 190 -61
190 4 0 2 6 -4 13 -5 6 -29 68 -52 137 -23 69 -45 134 -50 145 -10 22 -19 54
-21 70 0 6 -4 15 -8 20 -4 6 -16 38 -27 73 l-19 62 -532 0 c-293 0 -533 -2
-533 -4 0 -3 18 -50 39 -105 22 -56 37 -101 35 -101 -3 0 2 -10 10 -22 9 -12
16 -29 16 -38 0 -8 6 -27 14 -41 7 -14 16 -39 20 -55 4 -16 13 -42 21 -59 7
-16 23 -57 35 -90 13 -33 26 -69 31 -80 5 -11 18 -47 29 -80 12 -33 25 -69 30
-80 5 -11 32 -83 60 -160 28 -77 55 -149 60 -160 5 -11 19 -47 30 -80 12 -33
25 -69 30 -80 4 -11 22 -56 38 -100 17 -44 49 -129 72 -190 23 -60 48 -130 57
-155 8 -25 19 -54 24 -65 5 -11 29 -76 54 -145 25 -69 49 -134 54 -145 5 -11
18 -45 29 -75 31 -83 139 -373 178 -475 39 -103 40 -110 18 -154 -9 -17 -17
-37 -18 -44 -2 -7 -8 -25 -15 -42 -7 -16 -23 -57 -35 -90 -13 -33 -45 -113
-70 -178 -53 -134 -90 -230 -91 -237 -1 -3 -7 -16 -13 -30 -6 -14 -23 -56 -37
-95 -14 -38 -36 -91 -47 -117 -12 -26 -21 -55 -21 -63 0 -8 -5 -15 -10 -15 -6
0 -7 -3 -4 -7 4 -3 0 -17 -8 -30 -9 -13 -13 -23 -11 -23 3 0 -1 -12 -9 -27 -8
-15 -12 -30 -10 -34 3 -4 -2 -12 -10 -19 -8 -7 -15 -18 -15 -25 0 -7 -48 -134
-106 -282 -58 -147 -106 -272 -108 -278 -1 -5 -9 -26 -18 -45 -8 -19 -23 -59
-33 -88 -9 -30 -21 -50 -25 -45 -4 4 -37 91 -74 193 -37 102 -70 192 -73 200
-3 8 -7 17 -8 20 -1 3 -5 14 -9 25 -4 11 -18 49 -31 85 -40 109 -165 452 -185
505 -10 28 -32 88 -49 133 -17 46 -31 90 -31 97 0 7 -3 15 -7 17 -5 2 -21 41
-37 88 -15 47 -39 112 -51 145 -13 33 -42 112 -65 175 -51 139 -80 218 -91
245 -4 11 -29 79 -54 150 -26 72 -52 146 -60 165 -16 44 -39 105 -109 295 -30
83 -87 238 -126 345 -39 107 -83 227 -97 265 -13 39 -29 79 -34 90 -5 11 -26
70 -48 130 -21 61 -89 247 -151 415 -62 168 -121 330 -131 360 -11 30 -26 71
-34 90 -7 19 -32 87 -55 150 -23 63 -48 131 -56 151 l-15 35 -610 0 c-335 0
-611 -2 -614 -4z"/>
</g>
</svg>
